/home/minht/3dpredictsim_tutorial/predsim_tutorial/Results/Case_15/GRF.mot
version=1
nRows=20
nColumns=19
inDegrees=yes
endheader 
time	r_ground_force_vx	r_ground_force_vy	r_ground_force_vz	r_ground_force_px	r_ground_force_py	r_ground_force_pz	l_ground_force_vx	l_ground_force_vy	l_ground_force_vz	l_ground_force_px	l_ground_force_py	l_ground_force_pz	r_ground_torque_x	r_ground_torque_y	r_ground_torque_z	l_ground_torque_x	l_ground_torque_y	l_ground_torque_z	
          0.00000000	        -50.00053958	        125.28889653	         27.57945485	          0.13731437	          0.00000000	          0.05574367	        104.14152444	        810.34620239	         16.82988932	         -0.25427662	          0.00000000	         -0.04779995	          0.00000000	         -0.00093298	          0.00000000	          0.00000000	         -3.45032311	          0.00000000	
          0.03380463	        -22.95298628	        385.99634225	         -4.99439123	          0.14236098	          0.00000000	          0.05446499	         95.20800893	        699.06178068	         11.93336257	         -0.24234566	          0.00000000	         -0.04899587	          0.00000000	         -0.02516093	          0.00000000	          0.00000000	         -1.45901293	          0.00000000	
          0.06760925	        -72.70556549	        628.70851975	        -13.43855412	          0.15604518	          0.00000000	          0.05654377	         72.09477186	        527.42909479	          7.14649484	         -0.22873816	          0.00000000	         -0.05215612	          0.00000000	         -0.05026317	          0.00000000	          0.00000000	         -0.17903759	          0.00000000	
          0.10141388	        -98.06552195	        792.48850681	        -14.55723934	          0.17220829	          0.00000000	          0.05408319	         38.45730446	        329.42042859	          0.41962286	         -0.20797311	          0.00000000	         -0.05936926	          0.00000000	          1.05381142	          0.00000000	          0.00000000	         -0.11353536	          0.00000000	
          0.13521850	        -95.29929251	        845.45677501	        -12.00615517	          0.18319860	          0.00000000	          0.05213992	         15.58407649	        197.63754104	         -5.51153084	         -0.18970412	          0.00000000	         -0.06618230	          0.00000000	          1.30656750	          0.00000000	          0.00000000	         -0.12388390	          0.00000000	
          0.16902313	        -80.01072684	        862.01562811	        -11.84088088	          0.19009107	          0.00000000	          0.05157701	          0.29964014	        114.93835513	        -10.77912640	         -0.18605628	          0.00000000	         -0.06491785	          0.00000000	          1.10625432	          0.00000000	          0.00000000	          0.00090353	          0.00000000	
          0.20282775	        -63.25248390	        878.76629098	        -19.46382895	          0.19546154	          0.00000000	          0.05144202	        -16.06017661	         34.97726506	         -2.49571774	         -0.17934362	          0.00000000	         -0.05980263	          0.00000000	          0.60479796	          0.00000000	          0.00000000	          0.03420239	          0.00000000	
          0.23663238	        -46.90468981	        890.71093557	        -20.01128088	          0.20030170	          0.00000000	          0.05168712	          0.00000000	          0.00000000	          0.00000000	          0.00000000	          0.00000000	          0.00000000	          0.00000000	          1.16233456	          0.00000000	          0.00000000	          0.00000000	          0.00000000	
          0.27043701	        -33.83171534	        886.21153569	        -20.50500052	          0.20514650	          0.00000000	          0.05190210	          0.00000000	          0.00000000	          0.00000000	          0.00000000	          0.00000000	          0.00000000	          0.00000000	          1.51590002	          0.00000000	          0.00000000	          0.00000000	          0.00000000	
          0.30424163	        -25.34640401	        885.37409598	        -21.26532317	          0.21022744	          0.00000000	          0.05204078	          0.00000000	          0.00000000	          0.00000000	          0.00000000	          0.00000000	          0.00000000	          0.00000000	          2.04306843	          0.00000000	          0.00000000	          0.00000000	          0.00000000	
          0.33804626	        -21.24198958	        893.14592803	        -21.97048032	          0.21529362	          0.00000000	          0.05214671	          0.00000000	          0.00000000	          0.00000000	          0.00000000	          0.00000000	          0.00000000	          0.00000000	          3.02887304	          0.00000000	          0.00000000	          0.00000000	          0.00000000	
          0.37185088	        -16.80095811	        903.49838878	        -22.80683642	          0.22043824	          0.00000000	          0.05222172	          0.00000000	          0.00000000	          0.00000000	          0.00000000	          0.00000000	          0.00000000	          0.00000000	          4.21594414	          0.00000000	          0.00000000	          0.00000000	          0.00000000	
          0.40565551	        -11.29058079	        910.50377230	        -22.80906794	          0.22566543	          0.00000000	          0.05223629	          0.00000000	          0.00000000	          0.00000000	          0.00000000	          0.00000000	          0.00000000	          0.00000000	          5.32499941	          0.00000000	          0.00000000	          0.00000000	          0.00000000	
          0.43946013	         -5.08326605	        912.21202210	        -21.95995979	          0.23070448	          0.00000000	          0.05220574	          0.00000000	          0.00000000	          0.00000000	          0.00000000	          0.00000000	          0.00000000	          0.00000000	          6.21532816	          0.00000000	          0.00000000	          0.00000000	          0.00000000	
          0.47326476	          1.37429640	        911.73593600	        -20.51244300	          0.23568711	          0.00000000	          0.05209943	          0.00000000	          0.00000000	          0.00000000	          0.00000000	          0.00000000	          0.00000000	          0.00000000	          6.91503367	          0.00000000	          0.00000000	          0.00000000	          0.00000000	
          0.50706939	          7.37924058	        907.69589682	        -18.19022482	          0.24068675	          0.00000000	          0.05187380	          0.00000000	          0.00000000	          0.00000000	          0.00000000	          0.00000000	          0.00000000	          0.00000000	          7.52052761	          0.00000000	          0.00000000	          0.00000000	          0.00000000	
          0.54087401	         14.56295795	        897.99313487	        -17.20106615	          0.24562126	          0.00000000	          0.05148671	          0.00000000	          0.00000000	          0.00000000	          0.00000000	          0.00000000	          0.00000000	          0.00000000	          8.07028606	          0.00000000	          0.00000000	          0.00000000	          0.00000000	
          0.57467864	         21.86031161	        884.55394281	        -16.07723055	          0.25038931	          0.00000000	          0.05096754	          0.00000000	          0.00000000	          0.00000000	          0.00000000	          0.00000000	          0.00000000	          0.00000000	          8.48222241	          0.00000000	          0.00000000	          0.00000000	          0.00000000	
          0.60848326	         29.28487363	        871.16441632	        -15.47250003	          0.25521339	          0.00000000	          0.05044789	          0.00000000	          0.00000000	          0.00000000	          0.00000000	          0.00000000	          0.00000000	          0.00000000	          8.56352645	          0.00000000	          0.00000000	          0.00000000	          0.00000000	
          0.64228789	         38.43306857	        861.95835785	        -15.20160647	          0.26009382	          0.00000000	          0.05024549	          0.00000000	          0.00000000	          0.00000000	          0.00000000	          0.00000000	          0.00000000	          0.00000000	          8.14618416	          0.00000000	          0.00000000	          0.00000000	          0.00000000	
